# xmcd CD database file
#
# Track frame offsets:
#	150
#	16671
#	30787
#	44605
#	58450
#	72799
#	87370
#	103733
#	118812
#	135370
#	152315
#	168508
#	186452
#	202786
#	220810
#	237773
#	254226
#	269587
#	287604
#	306681
#
# Disc length: 4290 seconds
#
# Revision: 0
# Processed by: cddbd v1.5.2PL0 Copyright (c) Steve Scherf et al.
# Submitted via: CDex 1.51
#
DISCID=2510c014
DTITLE=Alabama - Number One Hits 41 [CD1]
DYEAR=1900
DGENRE=Country
TTITLE0=Five O'Clock 500
TTITLE1=Keepin' Up
TTITLE2=How Do You Fall In Love
TTITLE3=Tenessee River
TTITLE4=Why Lady Why
TTITLE5=Old Flame
TTITLE6=Feels So Right
TTITLE7=Love In The First Degree
TTITLE8=Mountain Music
TTITLE9=Take Me Down
TTITLE10=Close Enough To Perfect
TTITLE11=Dixieland Delight
TTITLE12=The Closer You Get
TTITLE13=Lady Down On Love
TTITLE14=Roll On Eighteen Wheeler
TTITLE15=When We Make Love
TTITLE16=If You're Gonna' Play In Texas
TTITLE17=Fire In The Night
TTITLE18=There's No Way
TTITLE19=Forty Hour Week
EXTD=
EXTT0=
EXTT1=
EXTT2=
EXTT3=
EXTT4=
EXTT5=
EXTT6=
EXTT7=
EXTT8=
EXTT9=
EXTT10=
EXTT11=
EXTT12=
EXTT13=
EXTT14=
EXTT15=
EXTT16=
EXTT17=
EXTT18=
EXTT19=
PLAYORDER=
